<mxfile host="app.diagrams.net" agent="Mozilla/5.0 (Macintosh; Intel Mac OS X 10_15_7) AppleWebKit/537.36 (KHTML, like Gecko) Chrome/135.0.0.0 Safari/537.36" version="26.2.14">
  <diagram name="第 1 页" id="4uezmQkb7-xFTb3XE11r">
    <mxGraphModel dx="530" dy="402" grid="1" gridSize="10" guides="1" tooltips="1" connect="1" arrows="1" fold="1" page="1" pageScale="1" pageWidth="827" pageHeight="1169" math="1" shadow="0">
      <root>
        <mxCell id="0" />
        <mxCell id="1" parent="0" />
        <mxCell id="E1nihEJY9pEFuzt2zk_K-13" value="" style="group" vertex="1" connectable="0" parent="1">
          <mxGeometry x="41" y="30" width="320" height="330" as="geometry" />
        </mxCell>
        <mxCell id="E1nihEJY9pEFuzt2zk_K-1" value="" style="endArrow=classic;startArrow=classic;html=1;rounded=0;" edge="1" parent="E1nihEJY9pEFuzt2zk_K-13">
          <mxGeometry width="50" height="50" relative="1" as="geometry">
            <mxPoint x="140" y="240" as="sourcePoint" />
            <mxPoint x="140" y="70" as="targetPoint" />
          </mxGeometry>
        </mxCell>
        <mxCell id="E1nihEJY9pEFuzt2zk_K-2" value="" style="endArrow=classic;startArrow=classic;html=1;rounded=0;" edge="1" parent="E1nihEJY9pEFuzt2zk_K-13">
          <mxGeometry width="50" height="50" relative="1" as="geometry">
            <mxPoint y="170" as="sourcePoint" />
            <mxPoint x="320" y="170" as="targetPoint" />
          </mxGeometry>
        </mxCell>
        <mxCell id="E1nihEJY9pEFuzt2zk_K-3" value="" style="curved=1;endArrow=none;html=1;rounded=0;startFill=0;fillColor=#f8cecc;strokeColor=#b85450;strokeWidth=2;" edge="1" parent="E1nihEJY9pEFuzt2zk_K-13">
          <mxGeometry width="50" height="50" relative="1" as="geometry">
            <mxPoint x="140" y="170" as="sourcePoint" />
            <mxPoint x="220" y="170" as="targetPoint" />
            <Array as="points">
              <mxPoint x="160" y="250" />
              <mxPoint x="199" y="90" />
            </Array>
          </mxGeometry>
        </mxCell>
        <mxCell id="E1nihEJY9pEFuzt2zk_K-4" value="" style="curved=1;endArrow=none;html=1;rounded=0;startFill=0;fillColor=#f8cecc;strokeColor=#b85450;strokeWidth=2;" edge="1" parent="E1nihEJY9pEFuzt2zk_K-13">
          <mxGeometry width="50" height="50" relative="1" as="geometry">
            <mxPoint x="219" y="170" as="sourcePoint" />
            <mxPoint x="299" y="170" as="targetPoint" />
            <Array as="points">
              <mxPoint x="239" y="250" />
              <mxPoint x="278" y="90" />
            </Array>
          </mxGeometry>
        </mxCell>
        <mxCell id="E1nihEJY9pEFuzt2zk_K-5" value="" style="curved=1;endArrow=none;html=1;rounded=0;startFill=0;fillColor=#f8cecc;strokeColor=#b85450;strokeWidth=2;" edge="1" parent="E1nihEJY9pEFuzt2zk_K-13">
          <mxGeometry width="50" height="50" relative="1" as="geometry">
            <mxPoint x="59" y="170" as="sourcePoint" />
            <mxPoint x="139" y="170" as="targetPoint" />
            <Array as="points">
              <mxPoint x="79" y="250" />
              <mxPoint x="118" y="90" />
            </Array>
          </mxGeometry>
        </mxCell>
        <mxCell id="E1nihEJY9pEFuzt2zk_K-6" value="" style="curved=1;endArrow=none;html=1;rounded=0;strokeWidth=2;fillColor=#dae8fc;strokeColor=#6c8ebf;startFill=0;" edge="1" parent="E1nihEJY9pEFuzt2zk_K-13">
          <mxGeometry width="50" height="50" relative="1" as="geometry">
            <mxPoint x="101" y="170" as="sourcePoint" />
            <mxPoint x="261" y="170" as="targetPoint" />
            <Array as="points">
              <mxPoint x="141" y="330" />
              <mxPoint x="219" y="10" />
            </Array>
          </mxGeometry>
        </mxCell>
        <mxCell id="E1nihEJY9pEFuzt2zk_K-27" value="\(P\)" style="text;html=1;align=center;verticalAlign=middle;whiteSpace=wrap;rounded=0;" vertex="1" parent="E1nihEJY9pEFuzt2zk_K-13">
          <mxGeometry x="99" y="60" width="60" height="30" as="geometry" />
        </mxCell>
        <mxCell id="E1nihEJY9pEFuzt2zk_K-29" value="时域" style="text;html=1;align=center;verticalAlign=middle;whiteSpace=wrap;rounded=0;" vertex="1" parent="E1nihEJY9pEFuzt2zk_K-13">
          <mxGeometry x="109" y="270" width="60" height="30" as="geometry" />
        </mxCell>
        <mxCell id="E1nihEJY9pEFuzt2zk_K-14" value="" style="group" vertex="1" connectable="0" parent="1">
          <mxGeometry x="400" y="30" width="320" height="330" as="geometry" />
        </mxCell>
        <mxCell id="E1nihEJY9pEFuzt2zk_K-15" value="" style="endArrow=classic;startArrow=classic;html=1;rounded=0;" edge="1" parent="E1nihEJY9pEFuzt2zk_K-14">
          <mxGeometry width="50" height="50" relative="1" as="geometry">
            <mxPoint x="140" y="240" as="sourcePoint" />
            <mxPoint x="140" y="70" as="targetPoint" />
          </mxGeometry>
        </mxCell>
        <mxCell id="E1nihEJY9pEFuzt2zk_K-16" value="" style="endArrow=classic;startArrow=classic;html=1;rounded=0;" edge="1" parent="E1nihEJY9pEFuzt2zk_K-14">
          <mxGeometry width="50" height="50" relative="1" as="geometry">
            <mxPoint y="170" as="sourcePoint" />
            <mxPoint x="320" y="170" as="targetPoint" />
          </mxGeometry>
        </mxCell>
        <mxCell id="E1nihEJY9pEFuzt2zk_K-23" value="\(f\)" style="text;html=1;align=center;verticalAlign=middle;whiteSpace=wrap;rounded=0;" vertex="1" parent="E1nihEJY9pEFuzt2zk_K-14">
          <mxGeometry x="150" y="170" width="60" height="30" as="geometry" />
        </mxCell>
        <mxCell id="E1nihEJY9pEFuzt2zk_K-24" value="\(2f\)" style="text;html=1;align=center;verticalAlign=middle;whiteSpace=wrap;rounded=0;" vertex="1" parent="E1nihEJY9pEFuzt2zk_K-14">
          <mxGeometry x="190" y="170" width="60" height="30" as="geometry" />
        </mxCell>
        <mxCell id="E1nihEJY9pEFuzt2zk_K-25" value="" style="endArrow=none;html=1;rounded=0;fillColor=#dae8fc;strokeColor=#6c8ebf;exitX=0.5;exitY=0;exitDx=0;exitDy=0;strokeWidth=2;" edge="1" parent="E1nihEJY9pEFuzt2zk_K-14" source="E1nihEJY9pEFuzt2zk_K-24">
          <mxGeometry width="50" height="50" relative="1" as="geometry">
            <mxPoint x="219.5" y="140" as="sourcePoint" />
            <mxPoint x="220" y="90" as="targetPoint" />
          </mxGeometry>
        </mxCell>
        <mxCell id="E1nihEJY9pEFuzt2zk_K-32" value="频域" style="text;html=1;align=center;verticalAlign=middle;whiteSpace=wrap;rounded=0;" vertex="1" parent="E1nihEJY9pEFuzt2zk_K-14">
          <mxGeometry x="110" y="270" width="60" height="30" as="geometry" />
        </mxCell>
        <mxCell id="E1nihEJY9pEFuzt2zk_K-22" value="" style="endArrow=none;html=1;rounded=0;fillColor=#f8cecc;strokeColor=#b85450;strokeWidth=2;" edge="1" parent="1">
          <mxGeometry width="50" height="50" relative="1" as="geometry">
            <mxPoint x="580" y="200" as="sourcePoint" />
            <mxPoint x="580" y="160" as="targetPoint" />
          </mxGeometry>
        </mxCell>
        <mxCell id="E1nihEJY9pEFuzt2zk_K-26" value="\(t\)" style="text;html=1;align=center;verticalAlign=middle;whiteSpace=wrap;rounded=0;" vertex="1" parent="1">
          <mxGeometry x="330" y="200" width="60" height="30" as="geometry" />
        </mxCell>
        <mxCell id="E1nihEJY9pEFuzt2zk_K-28" value="" style="endArrow=classic;html=1;rounded=0;fillColor=#e1d5e7;strokeColor=#9673a6;strokeWidth=3;" edge="1" parent="1">
          <mxGeometry width="50" height="50" relative="1" as="geometry">
            <mxPoint x="340" y="150" as="sourcePoint" />
            <mxPoint x="420" y="150" as="targetPoint" />
          </mxGeometry>
        </mxCell>
      </root>
    </mxGraphModel>
  </diagram>
</mxfile>
